# xmcd CD database file
#
# Track frame offsets:
#	150
#	22586
#	40587
#	61887
#	83488
#	100436
#	120237
#	138022
#	160158
#	178459
#	192402
#
# Disc length: 2743 seconds
#
# Revision: 0
# Processed by: cddbd v1.5.1PL0 Copyright (c) Steve Scherf et al.
# Submitted via: CDex 1.51
#
DISCID=7e0ab50b
DTITLE=Tam White - Hold On
DYEAR=2004
DGENRE=Blues
TTITLE0=01Falling
TTITLE1=02Strange_Love
TTITLE2=03Small_Talk
TTITLE3=04Slave_s_Lament
TTITLE4=05Hold_On
TTITLE5=06Nature_of_the_Beast
TTITLE6=07Freeway
TTITLE7=08Linda_s_Hideaway
TTITLE8=09Shame_the_Devil
TTITLE9=10Fadin_Fast
TTITLE10=11Man_Dancin
EXTD=YEAR: 2004
EXTT0=
EXTT1=
EXTT2=
EXTT3=
EXTT4=
EXTT5=
EXTT6=
EXTT7=
EXTT8=
EXTT9=
EXTT10=
PLAYORDER=
